PathFileType	3	(X/Y/Z)	running_1__view2_aligned.trc
DataRate	CameraRate	NumFrames	NumMarkers	Units	OrigDataRate	OrigDataStartFrame	OrigNumFrames
100.0	100.0	7	19	mm	100.0	4215	6426
Frame#	Time	pelvis			neck			head			hip_left			hip_right			knee_left			knee_right			ankle_left			ankle_right			heel_left			heel_right			toe_left			toe_right			shoulder_left			shoulder_right			elbow_left			elbow_right			wrist_left			wrist_right			
		X1	Y1	Z1	X2	Y2	Z2	X3	Y3	Z3	X4	Y4	Z4	X5	Y5	Z5	X6	Y6	Z6	X7	Y7	Z7	X8	Y8	Z8	X9	Y9	Z9	X10	Y10	Z10	X11	Y11	Z11	X12	Y12	Z12	X13	Y13	Z13	X14	Y14	Z14	X15	Y15	Z15	X16	Y16	Z16	X17	Y17	Z17	X18	Y18	Z18	X19	Y19	Z19	
4215	42.14000	-14.070597	946.140217	121.100268	-19.794909	1493.033098	234.097039	-27.575959	1589.321910	376.597091	58.533731	946.761716	117.873691	-86.675162	945.518718	124.326820	99.395658	541.943876	232.988854	-91.414752	521.217366	164.041980	87.914220	262.344341	-0.064771	-100.665136	174.579684	-13.677096	80.618785	245.702193	-46.559327	-100.562830	141.506874	-56.645913	90.168713	125.728646	88.416866	-101.816925	79.376492	121.074738	132.807727	1458.140491	161.321199	-184.580161	1451.237261	202.364054	219.324686	1249.355587	0.739446	-259.515109	1199.597156	130.431168	262.428964	1109.921162	166.698060	-148.175977	1131.602952	308.226761
4216	42.15000	-13.603752	944.823857	122.097678	-18.787024	1491.594864	234.224488	-26.212697	1587.895682	376.624666	59.000605	945.400309	119.125872	-86.208346	944.247411	125.069460	98.424472	541.721108	241.799359	-93.230739	518.663920	158.800074	86.990140	259.187668	14.471142	-101.008534	178.931971	-28.317674	79.919379	241.632223	-31.520895	-100.287094	147.723206	-71.901022	88.546428	125.703974	105.490623	-103.658042	79.495104	100.743035	133.196806	1457.148699	159.748677	-184.101060	1449.066782	204.049051	220.010210	1250.137288	-4.484410	-258.360959	1194.258417	137.675017	269.176849	1105.499692	162.341558	-141.036956	1132.374218	316.381472
4217	42.16000	-13.136907	943.507497	123.095089	-17.779138	1490.156630	234.351937	-24.849436	1586.469454	376.652242	59.467479	944.038902	120.378052	-85.741530	942.976105	125.812101	97.453285	541.498339	250.609865	-95.046726	516.110474	153.558167	86.066060	256.030995	29.007056	-101.351932	183.284258	-42.958251	79.219972	237.562252	-16.482463	-100.011358	153.939538	-87.156131	86.924144	125.679303	122.564379	-105.499159	79.613717	80.411332	133.585885	1456.156907	158.176155	-183.621959	1446.896302	205.734047	220.695735	1250.918988	-9.708267	-257.206809	1188.919678	144.918865	275.924734	1101.078223	157.985055	-133.897936	1133.145483	324.536182
4218	42.17000	-12.670063	942.191138	124.092499	-16.771252	1488.718396	234.479385	-23.486174	1585.043225	376.679817	59.934353	942.677494	121.630233	-85.274714	941.704798	126.554741	96.482099	541.275571	259.420370	-96.862713	513.557029	148.316260	85.141981	252.874322	43.542969	-101.695330	187.636546	-57.598829	78.520566	233.492282	-1.444031	-99.735621	160.155869	-102.411240	85.301859	125.654632	139.638136	-107.340276	79.732329	60.079629	133.974964	1455.165115	156.603633	-183.142857	1444.725823	207.419044	221.381259	1251.700689	-14.932124	-256.052660	1183.580939	152.162714	282.672619	1096.656754	153.628553	-126.758916	1133.916749	332.690893
4219	42.18000	-12.203218	940.874778	125.089910	-15.763366	1487.280162	234.606834	-22.122912	1583.616997	376.707392	60.401227	941.316087	122.882414	-84.807898	940.433492	127.297382	95.510913	541.052803	268.230875	-98.678701	511.003583	143.074353	84.217901	249.717649	58.078882	-102.038728	191.988833	-72.239407	77.821159	229.422312	13.594401	-99.459885	166.372201	-117.666349	83.679575	125.629961	156.711893	-109.181393	79.850941	39.747926	134.364043	1454.173323	155.031111	-182.663756	1442.555344	209.104041	222.066784	1252.482389	-20.155981	-254.898510	1178.242200	159.406563	289.420504	1092.235284	149.272050	-119.619896	1134.688015	340.845604
4220	42.19000	-10.252178	939.720850	125.203091	-13.081130	1486.087612	234.752953	-19.591365	1582.413724	376.777869	62.416073	940.204032	123.246934	-82.920639	939.237695	127.159228	96.894234	539.761071	272.821835	-98.793310	510.417288	143.309043	86.764851	243.575730	68.527185	-101.977416	196.146644	-82.483924	80.850113	221.781739	24.537108	-98.989504	172.083309	-128.861744	84.903831	124.023221	171.796629	-110.821040	79.398833	25.547378	137.017150	1452.584691	155.100814	-180.192887	1441.524043	209.569531	224.487681	1250.744118	-20.269948	-253.227333	1175.602186	161.998767	292.155157	1089.807085	150.169568	-115.736677	1134.257252	344.117673
4221	42.20000	-8.301137	938.566923	125.316272	-10.398895	1484.895062	234.899072	-17.059817	1581.210451	376.848346	64.430918	939.091976	123.611455	-81.033379	938.041899	127.021074	98.277555	538.469340	277.412795	-98.907920	509.830992	143.543733	89.311801	237.433811	78.975488	-101.916104	200.304456	-92.728440	83.879068	214.141165	35.479815	-98.519122	177.794417	-140.057140	86.128088	122.416480	186.881365	-112.460687	78.946724	11.346829	139.670258	1450.996059	155.170516	-177.722019	1440.492742	210.035021	226.908578	1249.005847	-20.383916	-251.556156	1172.962171	164.590972	294.889811	1087.378885	151.067086	-111.853458	1133.826489	347.389742
